<?xml version="1.0" standalone="no"?>
<!DOCTYPE svg PUBLIC "-//W3C//DTD SVG 20010904//EN"
 "http://www.w3.org/TR/2001/REC-SVG-20010904/DTD/svg10.dtd">
<svg version="1.0" xmlns="http://www.w3.org/2000/svg"
 width="1000.000000pt" height="500.000000pt" viewBox="0 0 1000.000000 500.000000"
 preserveAspectRatio="xMidYMid meet">

<g transform="translate(0.000000,500.000000) scale(0.100000,-0.100000)"
fill="#000000" stroke="none">
<path d="M0 2500 l0 -2500 5000 0 5000 0 0 2500 0 2500 -5000 0 -5000 0 0
-2500z m4134 1520 c119 -41 225 -133 279 -242 44 -92 49 -88 -126 -88 -145 0
-155 1 -173 21 -28 31 -76 49 -134 49 -63 0 -119 -27 -156 -75 -24 -32 -28
-49 -36 -148 -15 -191 -52 -280 -158 -381 -108 -103 -257 -150 -399 -126 -198
33 -356 185 -397 381 -17 80 -12 124 16 139 21 11 209 13 226 2 18 -12 34 -49
34 -79 0 -44 52 -119 99 -143 62 -31 145 -28 203 9 63 40 88 94 88 194 0 156
45 273 144 371 132 131 318 175 490 116z m1319 10 c96 -24 156 -58 228 -130
92 -91 139 -214 139 -363 1 -107 46 -187 123 -216 67 -26 178 -3 216 43 11 13
40 16 168 16 l154 0 -6 -22 c-31 -108 -136 -232 -238 -281 -32 -16 -91 -35
-130 -44 -285 -60 -566 171 -567 466 -1 171 -70 261 -200 261 -65 0 -108 -18
-147 -63 -40 -46 -53 -91 -53 -188 0 -124 -42 -235 -124 -326 -184 -205 -496
-213 -692 -17 -55 55 -124 167 -124 203 0 8 47 11 151 11 l150 0 40 -32 c32
-26 51 -33 98 -36 77 -6 122 10 165 58 43 47 56 92 56 191 0 237 159 430 395
479 67 13 118 11 198 -10z m1340 5 c188 -40 333 -187 373 -377 27 -130 11
-148 -129 -148 -56 0 -107 4 -113 8 -18 12 -34 49 -34 79 0 16 -13 50 -29 76
-39 60 -91 87 -170 87 -51 0 -66 -5 -111 -35 l-52 -35 -149 0 -148 0 15 42
c24 69 58 120 121 179 69 66 141 106 227 124 80 18 117 18 199 0z m-2434
-1380 c62 -34 100 -85 108 -144 l6 -41 -72 0 c-71 0 -72 0 -83 30 -5 17 -23
37 -39 45 -57 30 -167 11 -183 -30 -24 -62 10 -96 129 -129 115 -31 142 -42
183 -72 125 -96 93 -277 -61 -345 -68 -30 -197 -32 -276 -5 -67 23 -132 85
-149 142 -22 73 -21 74 63 74 60 0 75 -3 75 -15 0 -8 13 -29 28 -46 68 -76
242 -44 242 45 0 39 -41 65 -155 97 -119 33 -169 56 -202 91 -69 74 -53 205
33 277 56 46 113 61 214 58 72 -3 93 -7 139 -32z m337 -30 c7 -27 33 -139 59
-248 26 -109 49 -196 52 -194 2 3 28 98 58 211 30 114 59 225 65 247 l11 39
73 0 72 0 65 -250 c35 -137 66 -250 69 -250 3 0 32 113 64 250 l59 250 84 0
c82 0 83 -1 78 -22 -4 -13 -50 -176 -103 -363 l-98 -340 -71 -3 c-61 -2 -73 0
-81 15 -5 10 -37 118 -73 240 -35 122 -65 220 -67 218 -2 -2 -34 -109 -72
-237 l-67 -233 -71 -3 c-60 -2 -72 0 -80 15 -11 20 -202 687 -202 703 0 7 29
10 82 8 l82 -3 12 -50z m1249 44 c55 -14 122 -70 146 -123 11 -25 19 -64 19
-101 0 -76 -25 -130 -80 -178 l-43 -36 72 -131 c39 -73 71 -136 71 -141 0 -6
-34 -9 -81 -7 l-82 3 -67 125 -67 125 -56 3 -56 3 -3 -128 -3 -128 -75 0 -75
0 -3 363 -2 362 170 0 c94 0 191 -5 215 -11z m-1239 -1231 c-3 -13 -6 -26 -6
-30 0 -4 -12 -8 -27 -10 -20 -2 -28 -9 -28 -23 0 -14 8 -21 28 -23 21 -3 27
-9 27 -28 0 -20 -5 -24 -30 -24 l-30 0 0 -110 0 -110 -35 0 -35 0 0 110 c0
103 -1 110 -20 110 -14 0 -20 7 -20 24 0 15 7 26 20 29 14 3 20 14 20 32 0 43
41 75 96 75 43 0 46 -2 40 -22z m3211 6 c9 -24 -10 -49 -37 -49 -31 0 -48 28
-31 49 17 21 60 21 68 0z m-6217 -19 c38 -20 50 -43 50 -100 0 -38 -5 -52 -29
-76 l-29 -29 34 -62 c18 -35 34 -66 34 -70 0 -5 -17 -8 -37 -8 -36 0 -40 3
-73 65 -30 55 -39 65 -62 65 -26 0 -27 -2 -30 -62 l-3 -63 -35 0 -35 0 -3 178
-2 177 95 0 c66 0 105 -5 125 -15z m1312 -57 l3 -73 78 -3 77 -3 0 76 0 75 40
0 40 0 -2 -177 -3 -178 -37 -3 -38 -3 0 75 0 76 -80 0 -80 0 0 -75 0 -75 -35
0 -35 0 0 180 0 180 35 0 34 0 3 -72z m960 -23 l3 -96 40 51 c37 46 43 50 84
50 l43 0 -46 -54 c-25 -30 -46 -57 -46 -61 0 -4 19 -35 43 -69 23 -33 46 -67
50 -73 6 -10 -3 -13 -35 -13 -41 0 -44 2 -78 55 -19 30 -39 53 -45 52 -5 -2
-11 -27 -13 -56 l-3 -52 -37 3 -37 3 -3 178 -2 177 39 0 40 0 3 -95z m1578 72
c53 -35 75 -81 74 -157 0 -77 -21 -120 -73 -153 -29 -17 -51 -21 -130 -21
l-96 -1 -3 178 -2 177 98 0 c86 0 103 -3 132 -23z m1218 -4 c-3 -28 -4 -28
-86 -31 l-83 -3 3 -42 3 -42 73 -3 72 -3 0 -29 0 -30 -75 0 -75 0 0 -75 0 -75
-35 0 -35 0 0 180 0 180 121 0 120 0 -3 -27z m842 -40 l0 -66 26 24 c37 35 98
33 130 -4 22 -26 24 -37 24 -138 l0 -109 -35 0 -35 0 0 95 c0 90 -1 95 -25
111 -23 15 -27 15 -50 0 -22 -15 -24 -23 -27 -108 l-3 -93 -35 0 -35 0 -3 178
-2 177 35 0 35 0 0 -67z m-4870 12 c0 -31 3 -35 25 -35 20 0 25 -5 25 -25 0
-20 -5 -25 -25 -25 -24 0 -25 -2 -25 -75 0 -71 1 -76 25 -85 18 -7 25 -17 25
-35 0 -22 -4 -25 -38 -25 -21 0 -48 7 -60 16 -20 14 -22 23 -22 106 0 81 -2
90 -20 95 -13 3 -20 14 -20 28 0 14 7 25 20 28 15 4 20 14 20 36 0 29 3 31 35
31 33 0 35 -2 35 -35z m3310 0 c0 -31 3 -35 25 -35 20 0 25 -5 25 -25 0 -20
-5 -25 -25 -25 -24 0 -25 -2 -25 -75 0 -71 1 -76 25 -85 18 -7 25 -17 25 -35
0 -22 -4 -25 -39 -25 -23 0 -48 8 -62 19 -20 16 -23 29 -27 110 -3 68 -8 91
-18 91 -8 0 -14 10 -14 25 0 16 6 25 15 25 10 0 15 11 15 35 0 34 1 35 40 35
39 0 40 -1 40 -35z m1120 0 c0 -31 3 -35 25 -35 20 0 25 -5 25 -25 0 -20 -5
-25 -25 -25 -26 0 -26 0 -23 -77 3 -72 5 -78 26 -81 17 -3 22 -10 22 -33 0
-27 -2 -29 -40 -29 -65 0 -80 23 -80 126 0 77 -2 86 -20 91 -13 3 -20 14 -20
28 0 14 7 25 20 28 15 4 20 14 20 36 0 29 3 31 35 31 33 0 35 -2 35 -35z
m-5207 -39 c47 -19 69 -49 74 -101 l6 -45 -92 0 c-90 0 -92 -1 -89 -22 2 -12
15 -29 31 -38 25 -14 30 -13 58 3 31 17 89 24 89 10 -1 -14 -34 -50 -57 -62
-54 -27 -157 -1 -181 46 -64 124 41 260 161 209z m279 4 c59 -17 68 -39 68
-162 l0 -108 -30 0 c-18 0 -33 6 -36 15 -5 13 -8 13 -27 0 -34 -24 -94 -19
-122 10 -47 46 -22 116 45 129 16 3 43 9 60 12 34 6 43 16 34 38 -8 20 -52 21
-75 0 -12 -11 -25 -13 -48 -7 -31 8 -31 9 -15 32 17 23 66 50 94 51 8 0 32 -5
52 -10z m318 -13 c11 -6 26 -25 34 -42 l15 -30 -34 -3 c-24 -2 -40 3 -54 17
-26 26 -46 26 -71 1 -25 -25 -27 -95 -3 -122 22 -25 69 -24 83 2 7 14 21 20
45 20 33 0 34 -1 24 -29 -16 -45 -44 -64 -102 -69 -43 -3 -58 0 -87 20 -57 38
-72 118 -38 194 25 55 130 78 188 41z m936 -2 c38 -24 56 -61 57 -113 1 -90
-49 -142 -137 -142 -51 0 -95 30 -116 80 -16 40 -8 115 17 149 37 49 124 62
179 26z m279 11 c94 -40 102 -203 13 -252 -32 -18 -103 -17 -138 1 -87 45 -78
211 13 250 41 18 69 18 112 1z m557 4 c33 -9 68 -41 68 -61 0 -4 -14 -9 -32
-11 -22 -4 -37 1 -50 14 -19 19 -50 18 -72 -3 -11 -10 11 -39 28 -39 7 0 35
-7 63 -15 62 -19 80 -48 59 -99 -31 -75 -190 -76 -224 -2 -11 25 -11 26 27 26
22 0 44 -6 51 -15 16 -20 54 -19 71 1 11 14 11 18 -4 29 -10 7 -36 15 -58 19
-47 7 -89 45 -89 78 0 65 77 101 162 78z m596 -16 c47 -31 67 -127 37 -184
-46 -88 -176 -96 -230 -14 -26 40 -25 125 1 161 45 61 130 77 192 37z m252 -9
c0 -32 -3 -35 -29 -35 -16 0 -33 -6 -39 -13 -6 -7 -12 -53 -14 -103 l-3 -89
-37 -3 -38 -3 0 135 0 136 35 0 c29 0 35 -4 35 -21 0 -21 1 -21 25 5 13 14 33
26 45 26 16 0 20 -6 20 -35z m690 7 c24 -18 25 -24 28 -136 l3 -116 -31 0
c-24 0 -30 4 -30 21 l0 20 -26 -20 c-33 -26 -94 -28 -123 -3 -11 9 -24 31 -27
48 -9 47 27 82 94 93 59 9 78 22 69 45 -8 20 -55 21 -76 2 -19 -17 -71 -10
-71 9 0 6 9 20 19 29 43 39 124 43 171 8z m419 22 c17 -4 42 -18 56 -32 24
-23 25 -31 25 -133 l0 -109 -35 0 c-29 0 -35 4 -35 20 l0 21 -22 -21 c-48 -44
-148 -11 -148 50 0 16 3 36 6 45 8 20 56 45 88 45 14 0 36 4 51 10 22 8 24 13
15 30 -13 24 -65 27 -77 5 -7 -11 -18 -14 -41 -9 -18 4 -32 11 -32 16 0 15 50
56 73 61 37 7 43 7 76 1z m663 -4 c45 -13 73 -50 82 -107 l6 -43 -95 0 c-103
0 -116 -9 -75 -50 24 -24 49 -25 76 -5 24 18 84 20 84 2 0 -8 -11 -24 -25 -37
-34 -32 -116 -40 -161 -15 -89 48 -84 210 9 250 39 17 51 18 99 5z m482 -4
c34 -14 66 -50 66 -73 0 -21 -58 -15 -80 7 -25 25 -52 26 -73 2 -45 -49 -23
-142 33 -142 19 0 34 7 42 20 9 13 24 20 45 20 36 0 39 -6 21 -45 -24 -53
-120 -73 -179 -38 -88 52 -74 217 21 250 46 16 64 16 104 -1z m761 -17 c17
-17 20 -35 23 -134 l4 -115 -36 0 -36 0 0 90 c0 77 -3 93 -21 111 -20 20 -51
19 -74 -2 -5 -5 -11 -52 -13 -104 l-4 -95 -34 0 -34 0 0 135 0 135 35 0 c29 0
35 -4 35 -22 l0 -21 23 20 c12 11 29 23 37 26 24 9 73 -3 95 -24z m238 0 l17
-21 0 21 c0 18 6 21 41 21 l41 0 -4 -156 -3 -156 -33 -29 c-29 -26 -40 -29
-98 -29 -60 0 -68 2 -97 32 l-32 32 35 7 c25 5 40 3 51 -7 19 -17 71 -18 87
-2 7 7 12 27 12 46 0 32 -1 33 -22 18 -37 -26 -95 -20 -128 12 -64 64 -44 200
34 233 31 13 78 2 99 -22z m-513 -114 l0 -135 -35 0 -35 0 0 135 0 135 35 0
35 0 0 -135z"/>
<path d="M5720 2445 l0 -105 86 0 c81 0 87 1 115 29 24 24 29 38 29 76 0 38
-5 52 -29 76 -28 28 -34 29 -115 29 l-86 0 0 -105z"/>
<path d="M1560 1325 l0 -55 40 0 c27 0 47 7 60 20 24 24 25 38 4 68 -12 17
-25 22 -60 22 l-44 0 0 -55z"/>
<path d="M5400 1265 l0 -115 48 0 c74 1 102 34 102 120 0 44 -5 56 -29 81 -24
24 -38 29 -75 29 l-46 0 0 -115z"/>
<path d="M1876 1284 c-31 -31 -20 -44 39 -44 46 0 55 3 55 18 0 41 -63 58 -94
26z"/>
<path d="M2193 1198 c-44 -9 -61 -31 -42 -54 27 -33 95 1 87 43 -3 17 -8 18
-45 11z"/>
<path d="M3388 1283 c-38 -44 -24 -134 22 -146 34 -9 70 32 70 80 0 70 -55
109 -92 66z"/>
<path d="M3686 1285 c-54 -55 -9 -179 54 -145 59 32 43 160 -20 160 -10 0 -25
-7 -34 -15z"/>
<path d="M4806 1278 c-39 -55 0 -155 54 -141 28 7 53 64 44 101 -15 60 -69 83
-98 40z"/>
<path d="M5791 1199 c-46 -10 -69 -33 -51 -53 28 -35 94 -9 88 35 -3 23 -6 24
-37 18z"/>
<path d="M6216 1187 c-28 -21 -17 -51 21 -55 23 -2 35 3 47 20 9 12 16 28 16
35 0 17 -61 17 -84 0z"/>
<path d="M6866 1278 c-21 -30 -12 -38 44 -38 27 0 51 4 54 8 11 18 -25 52 -54
52 -18 0 -34 -8 -44 -22z"/>
<path d="M8360 1280 c-40 -40 -15 -140 35 -140 29 0 55 38 55 80 0 42 -26 80
-55 80 -8 0 -24 -9 -35 -20z"/>
</g>
</svg>
